<svg xmlns="http://www.w3.org/2000/svg" xmlns:xlink="http://www.w3.org/1999/xlink" viewBox="0,0,256,256" width="48px" height="48px" fill-rule="nonzero"><g fill="none" fill-rule="nonzero" stroke="none" stroke-width="1" stroke-linecap="butt" stroke-linejoin="miter" stroke-miterlimit="10" stroke-dasharray="" stroke-dashoffset="0" font-family="none" font-weight="none" font-size="none" text-anchor="none" style="mix-blend-mode: normal"><g transform="scale(5.33333,5.33333)"><path d="M38.2,19.2h-0.1c-2,-5.9 -7.6,-10.2 -14.1,-10.2c-6.5,0 -12.1,4.3 -14.1,10.2h-0.1c-5.9,0 -10.6,5.3 -9.7,11.4c0.7,4.9 5.1,8.5 10,8.5h0.2h27.4h0.2c4.9,0 9.3,-3.5 10,-8.5c0.9,-6.2 -3.8,-11.4 -9.7,-11.4z" fill="#9a9e9e"></path><path d="M24,14l6,7h-12z" fill="#f3f1f8"></path><path d="M22,34h4v-15h-4z" fill="#f3f1f8"></path><path d="M22,19v2h4v-2z" fill="#f0eff4"></path></g></g></svg>